<svg width="500" height="500" viewBox="0 0 500 500" fill="none" xmlns="http://www.w3.org/2000/svg">
<mask id="mask0_34_8" style="mask-type:luminance" maskUnits="userSpaceOnUse" x="50" y="50" width="400" height="399">
<path d="M50 50H449.964V449H50V50Z" fill="white"/>
</mask>
<g mask="url(#mask0_34_8)">
<path d="M249.797 178.526C247.802 180.521 245.885 181.958 243.411 183.474C237.984 187.385 232.557 190.896 226.651 192.813C229.125 213.958 244.37 225.292 249.797 228.724C255.224 225.292 270.464 213.958 272.938 192.813C267.036 190.818 261.13 187.385 255.703 183.474C253.708 181.958 251.792 180.521 249.797 178.526ZM238.464 176.609C239.979 175.651 241.417 174.135 242.932 173.177C235.51 166.797 229.604 158.896 225.219 149.557C220.271 139.182 217.318 126.891 217.318 113.646C217.318 100.875 220.271 88.5052 225.219 77.7344C230.641 66.8802 237.984 57.5417 247.401 51.1563C248.917 50.1979 250.833 50.1979 252.349 51.1563C261.688 57.5417 269.109 66.8802 274.536 77.7344C279.484 88.5885 282.438 100.875 282.438 113.646C282.438 126.974 279.484 139.26 274.536 149.557C270.068 158.896 263.682 166.797 256.818 173.177C258.333 174.135 259.771 175.651 261.286 176.609C271.104 184.031 281.479 187.464 291.854 186.427C302.229 185.391 312.521 180.042 322.896 169.667C325.37 166.714 328.323 163.281 330.797 159.854C337.182 150.995 341.172 142.135 342.609 132.797C344.125 124.417 344.125 116.516 342.13 109.177C334.229 109.177 326.411 111.651 318.99 115.563C311.089 120.031 303.266 126.891 297.359 135.271C293.448 140.219 290.495 146.604 288.5 153.469C286.026 161.37 284.589 169.188 284.589 176.13C284.115 178.604 282.115 180.599 279.641 180.042C277.167 180.042 275.734 178.047 275.734 175.573C275.734 168.151 277.25 159.292 280.203 150.438C282.677 143.016 285.63 135.672 290.016 129.766C297.438 120.427 305.74 113.005 315.156 107.578C324.974 102.63 335.349 99.6771 345.161 100.156C347.156 99.6771 349.073 101.115 349.63 103.109C353.063 112.448 353.542 123.302 351.625 134.156C350.109 141.578 347.719 148.917 343.724 155.781C350.589 152.349 358.01 149.396 365.354 148.359C376.208 145.885 386.979 146.844 396.875 149.875C398.87 150.833 399.828 152.349 399.828 154.344C399.828 164.719 397.354 175.016 391.927 184.354C386.979 193.688 379.641 202.547 369.745 209.49C363.839 213.958 356.417 217.391 349.073 219.307C340.693 222.26 331.359 223.776 323.938 224.255C321.464 224.255 319.464 222.26 319.464 219.786C319.464 217.313 321.464 215.318 323.938 215.318C330.318 214.839 338.698 213.323 346.599 210.849C352.984 208.854 359.37 205.901 364.797 202.469C373.177 196.083 379.557 188.661 384.026 180.281C387.938 172.859 390.411 165.042 390.891 157.141C383.469 155.146 375.172 155.146 366.792 156.661C357.932 158.656 348.594 162.568 340.214 168.469C336.307 170.943 333.354 173.896 330.401 176.849C319.547 186.667 314.12 197.042 313.161 207.417C312.203 217.792 316.115 228.083 323.536 238.458C324.495 239.974 325.531 241.411 326.969 242.927C332.875 235.505 340.776 229.604 350.109 225.214C360.964 219.786 373.255 217.313 386.021 217.313C399.349 217.313 411.641 219.786 421.938 225.214H422.417C433.266 230.641 442.125 237.979 448.51 247.396C450.026 248.917 449.469 250.828 448.51 252.344C442.125 261.203 432.786 269.104 421.938 273.974C411.563 279.401 399.271 282.354 386.021 282.354C373.255 282.354 360.885 279.401 350.109 274.453V273.974C340.776 269.505 332.875 263.599 326.969 256.734C325.453 258.25 324.495 259.688 323.536 261.203C316.115 271.021 312.203 281.396 313.161 291.771C314.12 302.146 319.547 312.438 330.401 322.333C333.354 325.286 336.307 328.24 340.214 330.714C348.594 337.099 357.932 341.089 366.792 342.526C375.172 344.042 383.547 344.042 390.891 342.047C390.411 334.146 387.938 326.323 384.026 318.901C379.557 311.005 373.177 303.182 364.797 297.276C359.37 293.365 352.984 290.411 346.599 288.417C338.698 285.943 330.318 284.505 323.938 283.948C321.464 283.948 319.464 281.953 319.464 279.479C319.464 277.005 321.464 275.01 323.938 275.568C331.359 275.568 340.693 277.083 349.073 280.036C356.495 282.51 363.839 285.464 369.745 289.854C379.557 296.719 386.979 305.578 391.927 314.995C397.354 324.328 399.828 335.182 399.828 345C399.828 346.995 398.87 348.911 396.875 349.469C387.063 352.422 376.208 353.38 365.354 351.464C357.932 349.948 350.589 347.552 343.729 343.563C347.635 350.427 350.109 357.849 351.625 365.193C353.62 376.042 353.146 386.818 349.63 396.714C349.151 398.708 347.156 399.667 345.161 399.667C335.349 399.667 324.974 396.714 315.156 391.766C305.818 386.818 297.438 378.995 290.016 369.578C285.547 363.672 282.594 356.25 280.203 348.911C277.25 340.052 275.734 331.193 275.734 323.771C275.734 321.297 277.25 319.302 279.641 319.302C282.115 319.302 284.115 320.818 284.589 323.214C284.589 330.078 286.109 338.458 288.5 346.354C290.495 352.74 293.448 359.125 297.359 364.552C303.266 372.932 311.167 379.318 318.99 383.786C326.411 387.698 334.229 390.172 342.13 390.646C344.125 383.224 344.125 374.927 342.609 366.547C341.094 357.688 337.182 348.354 330.797 339.974C328.323 336.063 325.37 332.552 322.896 329.599C312.521 319.224 302.229 313.875 291.854 312.839C281.479 311.88 271.182 315.792 261.286 322.656C259.771 324.172 258.333 325.13 256.818 326.563C263.682 332.469 270.146 340.37 274.536 349.708C279.484 360.563 282.438 372.375 282.438 385.62C282.438 398.391 279.484 410.76 274.536 421.531C269.109 432.385 261.766 441.724 252.349 448.109C250.833 449.068 248.917 449.068 247.401 448.109C238.063 441.724 230.641 432.865 225.219 421.531C220.271 410.677 217.318 398.87 217.318 385.62C217.318 372.292 220.271 360.484 225.219 349.708C229.688 340.37 235.589 332.469 242.932 326.563C241.417 325.047 239.979 324.089 238.464 322.656C228.089 315.792 217.797 311.802 207.422 312.839C197.047 313.797 186.75 319.224 176.854 329.599C173.901 332.552 171.427 335.984 168.474 339.974C162.568 348.354 158.656 357.688 156.661 366.547C155.146 374.927 155.708 383.307 157.62 390.646C165.042 390.172 172.865 387.698 180.286 383.786C188.667 379.318 196.005 372.932 202.474 364.552C205.901 359.125 208.854 352.74 210.849 346.354L211.328 345.875C213.802 337.979 214.76 330.156 215.24 323.214C215.24 320.74 217.234 319.302 219.708 319.302C222.182 319.302 224.177 321.297 224.177 323.771C223.698 331.193 222.182 340.052 219.708 348.354L219.229 348.828C217.234 356.25 213.802 363.594 209.417 369.5C202.552 378.839 193.693 386.74 184.833 391.688C175.021 396.635 164.646 399.589 154.828 399.589C152.833 399.589 150.917 398.63 150.359 396.635C146.927 386.818 146.448 375.964 148.365 365.109C149.323 357.688 152.276 350.349 156.266 343.484C148.844 347.396 141.5 349.87 134.078 351.385C123.224 353.38 112.453 352.344 103.036 349.391C101.042 348.911 100.083 346.917 100.083 344.922C99.6042 335.104 102.557 324.25 107.984 314.911C112.932 305.578 120.271 296.719 129.609 289.776C135.995 285.307 142.938 282.354 150.281 279.958H150.76C159.135 277.005 167.995 275.49 175.339 275.49C177.813 275.01 179.807 277.005 179.807 279.401C180.286 281.875 178.292 283.87 175.896 283.87C169.51 284.349 161.13 285.865 153.234 288.339C146.37 290.333 139.906 293.286 135.036 297.198C126.656 303.104 119.792 311.005 115.323 318.823C111.417 326.245 108.943 334.068 108.943 341.969C116.365 343.964 124.182 343.964 132.563 342.448C141.901 340.927 151.234 337.021 159.615 330.635C163.047 328.161 166.479 325.208 169.432 322.255C179.807 312.438 185.156 302.063 186.193 291.688C187.229 281.318 183.719 271.021 176.375 261.125C175.417 259.609 173.901 258.172 172.943 256.656C166.557 263.521 158.656 269.984 149.323 274.37C138.948 279.318 126.656 282.271 113.411 282.271C100.641 282.271 88.2708 279.318 77.4948 274.37C66.6458 268.948 57.3073 261.047 50.9219 252.188C49.9635 250.672 49.9635 248.755 50.9219 247.24C57.3073 237.901 66.6458 230.479 77.4948 225.052C88.349 219.625 100.641 217.151 113.411 217.151C126.734 217.151 139.026 219.625 149.323 225.052C158.656 229.521 166.557 235.427 172.943 242.771C173.901 241.255 175.417 239.818 176.375 238.302C183.797 227.927 187.229 217.63 186.193 207.255C185.234 196.88 179.807 186.589 169.432 176.693C166.479 173.74 163.047 170.786 159.615 168.313C151.234 162.406 141.901 158.495 132.563 156.5C124.182 154.984 116.281 154.984 108.943 156.979C108.943 164.88 111.417 172.703 115.323 180.125C119.792 188.5 126.656 195.844 135.036 202.307C139.984 205.74 146.37 208.693 153.234 210.688V211.167C161.13 213.641 169.51 214.599 175.896 215.078C178.37 215.078 180.365 217.073 179.807 219.547C179.807 222.021 177.813 224.016 175.339 224.016C167.917 223.536 159.057 222.021 150.76 219.547L150.281 219.068C142.859 217.073 135.995 213.641 129.609 209.25C120.271 202.391 112.849 193.531 107.984 184.115C102.557 174.776 99.6042 164.401 100.083 154.104C100.083 152.109 101.042 150.677 103.036 149.635C112.37 146.682 123.224 145.729 134.078 148.12C141.5 149.078 148.844 152.031 156.266 155.542C152.354 148.677 149.401 141.255 148.365 133.917C146.37 123.063 146.849 112.286 150.359 102.87C150.839 100.875 152.833 99.4375 154.828 99.9167C164.646 99.4375 175.021 102.391 184.833 107.339C193.693 112.766 202.552 120.109 209.417 129.526C213.885 135.432 217.318 142.854 219.229 150.198C222.182 159.052 223.698 167.911 224.177 175.333C224.177 177.807 222.182 179.802 219.708 179.802C217.234 180.281 215.24 178.286 215.24 175.891C214.76 169.031 213.724 161.13 210.771 153.229C208.776 146.365 205.823 139.901 202.391 135.031C196.005 126.651 188.583 119.792 180.208 115.323C172.786 111.411 164.964 108.938 157.542 108.938C155.547 116.359 155.068 124.177 156.583 132.557C158.578 141.896 162.49 150.755 168.396 159.615C171.349 163.047 173.823 166.474 176.776 169.427C186.589 179.802 196.964 185.151 207.339 186.188C217.797 187.385 228.089 183.953 238.464 176.609ZM218.271 194.807C214.365 195.286 210.375 195.766 206.943 195.286C201.516 194.807 196.089 193.292 190.661 190.818C193.135 196.245 194.573 201.672 195.13 207.099C195.609 210.526 195.13 214.521 194.651 217.948C224.656 222.422 237.984 247.479 237.984 247.958C237.984 248.438 238.464 248.917 238.464 249.474V249.953C238.464 250.432 237.984 250.911 237.984 251.948C237.984 251.948 224.656 277.563 194.651 281.474C195.13 284.906 195.609 288.896 195.13 292.807C194.651 298.234 193.135 303.661 190.661 308.531C196.089 306.057 201.516 304.62 206.943 304.057C210.375 304.057 214.365 304.057 218.271 304.536C222.182 274.531 247.802 261.682 247.802 261.682C248.281 261.203 248.76 261.203 249.797 261.203C250.276 261.203 251.313 261.203 251.792 261.682C251.792 261.682 277.406 274.453 281.318 304.536C285.229 304.057 288.74 304.057 292.651 304.057C298.078 304.536 303.505 306.057 308.932 308.531C305.979 303.583 304.464 298.156 303.984 292.807C303.984 288.896 303.984 284.906 304.464 281.474C274.458 277.563 261.609 251.948 261.609 251.948C261.13 250.99 261.13 250.432 261.13 249.953V249.474C261.13 248.995 261.13 248.516 261.609 247.958C261.609 247.479 274.375 222.339 304.464 217.948C303.984 214.521 303.984 210.526 303.984 207.099C304.464 201.672 305.979 196.245 308.932 190.818C303.505 193.292 298.078 194.729 292.651 195.286C288.74 195.766 285.229 195.286 281.318 194.807C277.406 224.813 251.792 238.141 251.792 238.141C251.313 238.141 250.276 238.62 249.797 238.62C248.839 238.62 248.281 238.141 247.802 238.141C247.802 238.141 222.182 224.813 218.271 194.807ZM183.318 243.568C181.802 245.563 180.365 248.036 178.37 249.953C180.365 251.948 181.802 253.865 183.318 255.859C187.229 261.286 190.74 267.188 192.656 272.615C213.802 270.62 225.135 255.38 229.125 249.953C225.214 244.047 213.885 229.281 192.656 226.807C190.661 232.234 187.229 238.141 183.318 243.568ZM243.411 315.953C245.885 317.469 247.88 318.901 249.797 320.901C251.792 318.901 253.708 317.469 255.703 315.953C261.13 312.042 267.036 309.089 272.938 307.094C270.464 285.464 255.224 274.135 249.797 270.62C244.37 274.052 229.125 285.385 226.651 307.094C232.557 309.005 237.984 311.958 243.411 315.953ZM320.661 249.953C319.146 247.958 317.229 245.484 315.714 243.568C311.802 238.141 308.854 232.234 306.854 226.807C285.229 229.281 273.896 244.047 270.385 249.953C273.818 255.38 285.151 270.62 306.854 272.615C308.854 267.188 311.802 261.286 315.714 255.859C317.229 253.865 319.224 251.948 320.661 249.953ZM233.036 146.047C236.948 154.427 242.854 161.766 249.797 167.193C256.661 161.766 262.089 154.427 266.557 146.047C271.026 136.229 273.417 125.375 273.417 113.568C273.417 101.755 270.943 90.901 266.557 81.5625C262.089 72.7031 256.74 65.2813 249.797 59.9375C242.932 65.3646 237.505 72.7031 233.036 81.0833V81.5625C228.568 90.901 226.172 101.755 226.172 113.568C226.172 125.375 228.646 136.229 233.036 146.047ZM167.036 249.953C161.609 243.089 154.271 237.182 145.891 233.193C136.552 228.724 125.219 225.771 113.411 225.771C102.078 225.771 90.7448 228.724 81.4063 233.193C72.5469 237.104 65.125 243.01 60.2604 249.953C65.6875 256.339 72.5469 262.24 81.4063 266.234C90.7448 271.182 102.078 273.656 113.411 273.656C125.219 273.656 136.552 271.182 145.891 266.234C154.271 262.24 161.609 256.339 167.036 249.953ZM249.797 332.151C242.932 337.578 237.026 344.922 233.036 353.776C228.568 363.115 226.172 373.969 226.172 385.781C226.172 397.594 228.646 408.443 233.036 417.781V418.26C237.505 426.641 242.854 433.984 249.797 439.411C256.661 433.984 262.089 426.641 266.557 417.781C271.026 408.443 273.417 397.594 273.417 385.781C273.417 373.969 270.943 363.115 266.557 353.776C262.089 345 256.661 337.578 249.797 332.151ZM353.703 233.193C344.844 237.104 337.422 243.01 332.073 249.953C337.5 256.339 344.844 262.24 353.224 266.234H353.703C363.042 271.182 373.891 273.656 385.703 273.656C397.516 273.656 408.37 271.182 417.708 266.234C426.563 262.323 433.984 256.417 439.333 249.953C433.906 243.089 426.563 237.182 418.182 233.193H417.708C408.37 228.724 397.516 225.771 385.703 225.771C373.891 225.771 363.042 228.802 353.703 233.193Z" fill="#09102B"/>
</g>
</svg>
